RobotoExtremo-opsz144-wght400-wdth25-XOPQmax.ufo
<glyph name="quotedbl" format="2">
  <advance width="411"/>
  <unicode hex="0022"/>
  <outline>
    <contour>
      <point x="36.01265822784811" y="1113.0" type="line"/>
      <point x="20.0" y="1361.0" type="line"/>
      <point x="20.0" y="1456.0" type="line"/>
      <point x="175.15189873417722" y="1456.0" type="line"/>
      <point x="175.15189873417722" y="1361.0" type="line"/>
      <point x="160.13924050632912" y="1113.0" type="line"/>
    </contour>
    <contour>
      <point x="251.1645569620253" y="1113.0" type="line"/>
      <point x="235.15189873417722" y="1361.0" type="line"/>
      <point x="235.15189873417722" y="1456.0" type="line"/>
      <point x="391.30379746835445" y="1456.0" type="line"/>
      <point x="391.30379746835445" y="1361.0" type="line"/>
      <point x="376.29113924050637" y="1113.0" type="line"/>
    </contour>
  </outline>
</glyph>
<glyph name="ampersand" format="2">
  <advance width="621"/>
  <unicode hex="0026"/>
  <outline>
    <contour>
      <point x="26.0" y="313.0" type="qcurve" smooth="yes"/>
      <point x="26.0" y="486.0"/>
      <point x="88.49367088607596" y="666.0"/>
      <point x="148.2025316455696" y="759.0" type="qcurve" smooth="yes"/>
      <point x="235.4683544303798" y="814.0" type="line" smooth="yes"/>
      <point x="278.4683544303798" y="905.0"/>
      <point x="297.02531645569616" y="1125.0"/>
      <point x="297.02531645569616" y="1211.0" type="qcurve" smooth="yes"/>
      <point x="297.02531645569616" y="1325.0"/>
      <point x="287.02531645569616" y="1365.0"/>
      <point x="267.0253164556962" y="1365.0" type="qcurve" smooth="yes"/>
      <point x="249.0253164556962" y="1365.0"/>
      <point x="240.0253164556962" y="1330.0"/>
      <point x="240.0253164556962" y="1208.0" type="qcurve" smooth="yes"/>
      <point x="240.0253164556962" y="1117.0"/>
      <point x="260.1392405063291" y="855.0"/>
      <point x="279.6835443037975" y="771.0" type="qcurve" smooth="yes"/>
      <point x="607.1645569620252" y="0.0" type="line"/>
      <point x="406.02531645569616" y="0.0" type="line"/>
      <point x="149.98734177215192" y="719.0" type="line" smooth="yes"/>
      <point x="95.36708860759495" y="825.0"/>
      <point x="56.45569620253164" y="1056.0"/>
      <point x="56.45569620253164" y="1206.0" type="qcurve" smooth="yes"/>
      <point x="56.45569620253164" y="1347.0"/>
      <point x="154.81012658227849" y="1467.0"/>
      <point x="266.0253164556962" y="1467.0" type="qcurve" smooth="yes"/>
      <point x="381.24050632911394" y="1467.0"/>
      <point x="478.5949367088608" y="1354.0"/>
      <point x="478.5949367088608" y="1235.0" type="qcurve" smooth="yes"/>
      <point x="478.5949367088608" y="1110.0"/>
      <point x="422.4556962025316" y="845.0"/>
      <point x="341.16455696202524" y="721.0" type="qcurve" smooth="yes"/>
      <point x="252.8987341772152" y="659.0" type="line" smooth="yes"/>
      <point x="231.01547710997767" y="604.0"/>
      <point x="220.0253164556962" y="473.0"/>
      <point x="220.0253164556962" y="328.0" type="qcurve" smooth="yes"/>
      <point x="220.0253164556962" y="180.0"/>
      <point x="233.7721518987342" y="85.0"/>
      <point x="277.746835443038" y="85.0" type="qcurve" smooth="yes"/>
      <point x="346.6582278481012" y="85.0"/>
      <point x="411.02531645569616" y="372.0"/>
      <point x="400.02531645569616" y="742.0" type="qcurve"/>
      <point x="584.5949367088608" y="742.0" type="line"/>
      <point x="593.5949367088608" y="393.0"/>
      <point x="450.75949367088606" y="-10.0"/>
      <point x="270.746835443038" y="-10.0" type="qcurve" smooth="yes"/>
      <point x="150.75949367088606" y="-10.0"/>
      <point x="26.0" y="117.0"/>
    </contour>
  </outline>
</glyph>
<glyph name="parenright" format="2">
  <advance width="358"/>
  <unicode hex="0029"/>
  <outline>
    <contour>
      <point x="61.0" y="-396.0" type="qcurve"/>
      <point x="8.0" y="-359.1392405063291" type="line"/>
      <point x="70.21518987341773" y="-281.1392405063291"/>
      <point x="137.0" y="77.62025316455697"/>
      <point x="137.0" y="439.0" type="qcurve" smooth="yes"/>
      <point x="137.0" y="588.0" type="line" smooth="yes"/>
      <point x="137.0" y="1007.5822784810126"/>
      <point x="55.21518987341773" y="1389.139240506329"/>
      <point x="10.0" y="1436.139240506329" type="qcurve"/>
      <point x="61.0" y="1476.0" type="line"/>
      <point x="171.2025316455696" y="1427.0"/>
      <point x="309.75949367088606" y="1028.6708860759495"/>
      <point x="309.75949367088606" y="621.0" type="qcurve" smooth="yes"/>
      <point x="309.75949367088606" y="425.0" type="line" smooth="yes"/>
      <point x="309.75949367088606" y="-3.1392405063291164"/>
      <point x="173.2025316455696" y="-338.0"/>
    </contour>
  </outline>
</glyph>
<glyph name="three" format="2">
  <advance width="352"/>
  <unicode hex="0033"/>
  <outline>
    <contour>
      <point x="-74.91139240506328" y="203.0" type="qcurve" smooth="yes"/>
      <point x="-74.91139240506328" y="455.0" type="line"/>
      <point x="118.0" y="455.0" type="line"/>
      <point x="118.0" y="212.0" type="line" smooth="yes"/>
      <point x="118.0" y="134.0"/>
      <point x="139.0" y="86.0"/>
      <point x="169.0" y="86.0" type="qcurve" smooth="yes"/>
      <point x="203.0" y="86.0"/>
      <point x="222.0" y="163.0"/>
      <point x="222.0" y="395.0" type="qcurve" smooth="yes"/>
      <point x="222.0" y="631.0"/>
      <point x="174.0" y="733.0"/>
      <point x="123.0" y="733.0" type="qcurve" smooth="yes"/>
      <point x="19.860759493670884" y="733.0" type="line"/>
      <point x="19.860759493670884" y="829.0" type="line"/>
      <point x="108.0" y="829.0" type="line" smooth="yes"/>
      <point x="175.0" y="827.0"/>
      <point x="223.0" y="948.0"/>
      <point x="223.0" y="1106.0" type="qcurve" smooth="yes"/>
      <point x="223.0" y="1304.0"/>
      <point x="202.0" y="1370.0"/>
      <point x="173.0" y="1370.0" type="qcurve" smooth="yes"/>
      <point x="144.0" y="1370.0"/>
      <point x="132.0" y="1318.0"/>
      <point x="132.0" y="1245.0" type="qcurve" smooth="yes"/>
      <point x="132.0" y="1005.0" type="line"/>
      <point x="-58.91139240506328" y="1005.0" type="line"/>
      <point x="-58.91139240506328" y="1265.0" type="line" smooth="yes"/>
      <point x="-58.91139240506328" y="1367.0"/>
      <point x="59.96081151378536" y="1466.0"/>
      <point x="172.0" y="1466.0" type="qcurve" smooth="yes"/>
      <point x="291.1533052039381" y="1466.0"/>
      <point x="412.56962025316454" y="1343.0"/>
      <point x="412.56962025316454" y="1112.0" type="qcurve" smooth="yes"/>
      <point x="412.56962025316454" y="947.0"/>
      <point x="348.2905794571823" y="805.0"/>
      <point x="286.97468354430384" y="788.0" type="qcurve"/>
      <point x="286.97468354430384" y="784.0" type="line"/>
      <point x="353.8298582963124" y="769.0"/>
      <point x="410.4556962025316" y="610.0"/>
      <point x="410.4556962025316" y="395.0" type="qcurve" smooth="yes"/>
      <point x="410.4556962025316" y="154.0"/>
      <point x="295.11507479861916" y="-10.0"/>
      <point x="168.0" y="-10.0" type="qcurve" smooth="yes"/>
      <point x="55.42386526137389" y="-10.0"/>
      <point x="-74.91139240506328" y="86.0"/>
    </contour>
  </outline>
</glyph>
<glyph name="colon" format="2">
  <advance width="339"/>
  <unicode hex="003A"/>
  <outline>
    <contour>
      <point x="44.0" y="77.0" type="qcurve" smooth="yes"/>
      <point x="44.0" y="112.0"/>
      <point x="109.0632911392405" y="159.0"/>
      <point x="169.4556962025316" y="159.0" type="qcurve" smooth="yes"/>
      <point x="229.84810126582278" y="159.0"/>
      <point x="294.9113924050633" y="112.0"/>
      <point x="294.9113924050633" y="77.0" type="qcurve" smooth="yes"/>
      <point x="294.9113924050633" y="41.0"/>
      <point x="229.84810126582278" y="-6.0"/>
      <point x="169.4556962025316" y="-6.0" type="qcurve" smooth="yes"/>
      <point x="109.0632911392405" y="-6.0"/>
      <point x="44.0" y="42.0"/>
    </contour>
    <contour>
      <point x="44.0" y="730.0" type="qcurve" smooth="yes"/>
      <point x="44.0" y="765.0"/>
      <point x="109.0632911392405" y="812.0"/>
      <point x="169.4556962025316" y="812.0" type="qcurve" smooth="yes"/>
      <point x="229.84810126582278" y="812.0"/>
      <point x="294.9113924050633" y="765.0"/>
      <point x="294.9113924050633" y="730.0" type="qcurve" smooth="yes"/>
      <point x="294.9113924050633" y="694.0"/>
      <point x="229.84810126582278" y="647.0"/>
      <point x="169.4556962025316" y="647.0" type="qcurve" smooth="yes"/>
      <point x="109.0632911392405" y="647.0"/>
      <point x="44.0" y="695.0"/>
    </contour>
  </outline>
</glyph>
<glyph name="semicolon" format="2">
  <advance width="339"/>
  <unicode hex="003B"/>
  <outline>
    <contour>
      <point x="8.455696202531641" y="-145.0" type="line"/>
      <point x="46.810126582278485" y="-101.0"/>
      <point x="91.37974683544303" y="-11.0"/>
      <point x="91.37974683544303" y="50.0" type="qcurve" smooth="yes"/>
      <point x="91.37974683544303" y="143.0" type="line"/>
      <point x="250.53164556962025" y="143.0" type="line"/>
      <point x="250.53164556962025" y="50.0" type="line" smooth="yes"/>
      <point x="251.53164556962025" y="-25.0"/>
      <point x="174.37974683544303" y="-141.0"/>
      <point x="117.67088607594934" y="-182.0" type="qcurve"/>
    </contour>
    <contour>
      <point x="44.0" y="730.0" type="qcurve" smooth="yes"/>
      <point x="44.0" y="765.0"/>
      <point x="109.0632911392405" y="812.0"/>
      <point x="169.4556962025316" y="812.0" type="qcurve" smooth="yes"/>
      <point x="229.84810126582278" y="812.0"/>
      <point x="294.9113924050633" y="765.0"/>
      <point x="294.9113924050633" y="730.0" type="qcurve" smooth="yes"/>
      <point x="294.9113924050633" y="694.0"/>
      <point x="229.84810126582278" y="647.0"/>
      <point x="169.4556962025316" y="647.0" type="qcurve" smooth="yes"/>
      <point x="109.0632911392405" y="647.0"/>
      <point x="44.0" y="695.0"/>
    </contour>
  </outline>
</glyph>
<glyph name="equal" format="2">
  <advance width="431"/>
  <unicode hex="003D"/>
  <outline>
    <contour>
      <point x="66.3291139240506" y="527.0126582278481" type="line"/>
      <point x="66.3291139240506" y="620.2278481012659" type="line"/>
      <point x="364.9873417721519" y="620.2278481012659" type="line"/>
      <point x="364.9873417721519" y="527.0126582278481" type="line"/>
    </contour>
    <contour>
      <point x="66.3291139240506" y="742.0253164556962" type="line"/>
      <point x="66.3291139240506" y="835.2405063291139" type="line"/>
      <point x="364.9873417721519" y="835.2405063291139" type="line"/>
      <point x="364.9873417721519" y="742.0253164556962" type="line"/>
    </contour>
  </outline>
</glyph>
<glyph name="greater" format="2">
  <advance width="384"/>
  <unicode hex="003E"/>
  <outline>
    <contour>
      <point x="42.936708860759495" y="267.11392405063293" type="line"/>
      <point x="42.936708860759495" y="407.32911392405066" type="line"/>
      <point x="170.4683544303798" y="677.8987341772151" type="line"/>
      <point x="42.936708860759495" y="948.4683544303798" type="line"/>
      <point x="42.936708860759495" y="1083.113924050633" type="line"/>
      <point x="348.49367088607596" y="707.1139240506329" type="line"/>
      <point x="348.49367088607596" y="643.1139240506329" type="line"/>
    </contour>
  </outline>
</glyph>
<glyph name="B" format="2">
  <advance width="531"/>
  <unicode hex="0042"/>
  <outline>
    <contour>
      <point x="46.0" y="0.0" type="line"/>
      <point x="46.0" y="1456.0" type="line"/>
      <point x="267.22784810126586" y="1456.0" type="line" smooth="yes"/>
      <point x="386.0" y="1456.0"/>
      <point x="508.3417721518988" y="1292.0"/>
      <point x="508.3417721518988" y="1091.0" type="qcurve" smooth="yes"/>
      <point x="508.3417721518988" y="897.0"/>
      <point x="460.3417721518988" y="788.0"/>
      <point x="405.3417721518988" y="770.0" type="qcurve"/>
      <point x="405.3417721518988" y="768.0" type="line"/>
      <point x="460.3417721518988" y="751.0"/>
      <point x="516.3417721518988" y="614.0"/>
      <point x="516.3417721518988" y="416.0" type="qcurve" smooth="yes"/>
      <point x="516.3417721518988" y="166.0"/>
      <point x="388.3291139240506" y="0.0"/>
      <point x="241.22784810126586" y="0.0" type="qcurve" smooth="yes"/>
    </contour>
    <contour>
      <point x="232.2278481012658" y="97.0" type="line"/>
      <point x="255.22784810126586" y="97.0" type="line" smooth="yes"/>
      <point x="299.22784810126586" y="97.0"/>
      <point x="325.22784810126586" y="226.0"/>
      <point x="325.22784810126586" y="416.0" type="qcurve" smooth="yes"/>
      <point x="325.22784810126586" y="596.0"/>
      <point x="290.22784810126586" y="708.0"/>
      <point x="259.22784810126586" y="708.0" type="qcurve" smooth="yes"/>
      <point x="232.2278481012658" y="708.0" type="line"/>
    </contour>
    <contour>
      <point x="232.2278481012658" y="808.0" type="line"/>
      <point x="249.22784810126586" y="808.0" type="line" smooth="yes"/>
      <point x="286.22784810126586" y="808.0"/>
      <point x="318.22784810126586" y="898.0"/>
      <point x="317.22784810126586" y="1087.0" type="qcurve" smooth="yes"/>
      <point x="316.22784810126586" y="1276.0"/>
      <point x="293.22784810126586" y="1358.0"/>
      <point x="264.22784810126586" y="1358.0" type="qcurve" smooth="yes"/>
      <point x="232.2278481012658" y="1358.0" type="line"/>
    </contour>
  </outline>
</glyph>
<glyph name="H" format="2">
  <advance width="568"/>
  <unicode hex="0048"/>
  <outline>
    <contour>
      <point x="46.0" y="0.0" type="line"/>
      <point x="46.0" y="1456.0" type="line"/>
      <point x="232.0" y="1456.0" type="line"/>
      <point x="232.0" y="804.0" type="line"/>
      <point x="336.0" y="804.0" type="line"/>
      <point x="336.0" y="1456.0" type="line"/>
      <point x="522.0" y="1456.0" type="line"/>
      <point x="522.0" y="0.0" type="line"/>
      <point x="336.0" y="0.0" type="line"/>
      <point x="336.0" y="700.0" type="line"/>
      <point x="232.0" y="700.0" type="line"/>
      <point x="232.0" y="0.0" type="line"/>
    </contour>
  </outline>
</glyph>
<glyph name="J" format="2">
  <advance width="510"/>
  <unicode hex="004A"/>
  <outline>
    <contour>
      <point x="0.0" y="197.0" type="qcurve" smooth="yes"/>
      <point x="0.0" y="335.0" type="line"/>
      <point x="184.0" y="335.0" type="line"/>
      <point x="184.0" y="207.0" type="line" smooth="yes"/>
      <point x="184.0" y="127.0"/>
      <point x="207.0" y="87.0"/>
      <point x="232.0" y="87.0" type="qcurve" smooth="yes"/>
      <point x="259.0" y="87.0"/>
      <point x="282.0" y="131.0"/>
      <point x="282.0" y="228.0" type="qcurve" smooth="yes"/>
      <point x="282.0" y="1456.0" type="line"/>
      <point x="468.0" y="1456.0" type="line"/>
      <point x="468.0" y="235.0" type="line" smooth="yes"/>
      <point x="468.0" y="96.0"/>
      <point x="347.9873417721519" y="-9.0"/>
      <point x="235.0" y="-9.0" type="qcurve" smooth="yes"/>
      <point x="125.0126582278481" y="-9.0"/>
      <point x="0.0" y="87.0"/>
    </contour>
  </outline>
</glyph>
<glyph name="N" format="2">
  <advance width="413"/>
  <unicode hex="004E"/>
  <anchor x="267.37974683544303" y="1432.0" name="top"/>
  <outline>
    <contour>
      <point x="46.0" y="0.0" type="line"/>
      <point x="46.0" y="1456.0" type="line"/>
      <point x="248.9367088607595" y="1456.0" type="line"/>
      <point x="274.78481012658233" y="382.11392405063293" type="line" smooth="yes"/>
      <point x="274.22784810126586" y="376.11392405063293"/>
      <point x="282.78481012658233" y="262.11392405063293"/>
      <point x="284.89873417721515" y="255.1139240506329" type="qcurve"/>
      <point x="284.89873417721515" y="255.1139240506329" type="line"/>
      <point x="283.78481012658233" y="262.11392405063293"/>
      <point x="283.22784810126586" y="380.11392405063293"/>
      <point x="283.22784810126586" y="384.11392405063293" type="qcurve" smooth="yes"/>
      <point x="283.22784810126586" y="1456.0" type="line"/>
      <point x="367.0" y="1456.0" type="line"/>
      <point x="367.0" y="0.0" type="line"/>
      <point x="170.5443037974684" y="0.0" type="line"/>
      <point x="139.44303797468353" y="1024.5949367088608" type="line" smooth="yes"/>
      <point x="139.44303797468353" y="1031.1518987341772"/>
      <point x="132.44303797468353" y="1135.5949367088608"/>
      <point x="130.44303797468353" y="1147.5949367088608" type="qcurve"/>
      <point x="130.44303797468353" y="1147.5949367088608" type="line"/>
      <point x="130.44303797468353" y="1135.5949367088608"/>
      <point x="133.1139240506329" y="1029.5949367088608"/>
      <point x="133.1139240506329" y="1023.5949367088608" type="qcurve" smooth="yes"/>
      <point x="133.1139240506329" y="0.0" type="line"/>
    </contour>
  </outline>
</glyph>
<glyph name="R" format="2">
  <advance width="556"/>
  <unicode hex="0052"/>
  <outline>
    <contour>
      <point x="46.0" y="0.0" type="line"/>
      <point x="46.0" y="1456.0" type="line"/>
      <point x="271.0" y="1456.0" type="line" smooth="yes"/>
      <point x="390.3291139240506" y="1456.0"/>
      <point x="524.0" y="1328.0"/>
      <point x="524.0" y="1044.0" type="qcurve" smooth="yes"/>
      <point x="524.0" y="805.0"/>
      <point x="385.3291139240506" y="627.0"/>
      <point x="247.0" y="627.0" type="qcurve" smooth="yes"/>
      <point x="232.0" y="627.0" type="line"/>
      <point x="232.0" y="0.0" type="line"/>
    </contour>
    <contour>
      <point x="232.0" y="726.0" type="line"/>
      <point x="265.0" y="726.0" type="line" smooth="yes"/>
      <point x="307.0" y="726.0"/>
      <point x="335.0" y="875.0"/>
      <point x="335.0" y="1043.0" type="qcurve" smooth="yes"/>
      <point x="335.0" y="1272.0"/>
      <point x="305.0" y="1357.0"/>
      <point x="266.0" y="1357.0" type="qcurve" smooth="yes"/>
      <point x="232.0" y="1357.0" type="line"/>
    </contour>
    <contour>
      <point x="351.83544303797464" y="0.0" type="line"/>
      <point x="227.8354430379747" y="679.0" type="line"/>
      <point x="425.43037974683546" y="679.0" type="line"/>
      <point x="556.4303797468355" y="0.0" type="line"/>
    </contour>
  </outline>
</glyph>
<glyph name="e" format="2">
  <advance width="511"/>
  <unicode hex="0065"/>
  <anchor x="270.5443037974684" y="914.0" name="top"/>
  <outline>
    <contour>
      <point x="36.0" y="167.0" type="qcurve" smooth="yes"/>
      <point x="36.0" y="743.0" type="line" smooth="yes"/>
      <point x="36.0" y="825.0"/>
      <point x="167.2278481012658" y="923.0"/>
      <point x="260.54430379746833" y="923.0" type="qcurve" smooth="yes"/>
      <point x="367.6455696202531" y="923.0"/>
      <point x="487.08860759493666" y="836.0"/>
      <point x="487.08860759493666" y="743.0" type="qcurve" smooth="yes"/>
      <point x="487.08860759493666" y="462.0" type="line"/>
      <point x="155.54430379746833" y="462.0" type="line"/>
      <point x="155.54430379746833" y="546.0" type="line"/>
      <point x="307.873417721519" y="546.0" type="line"/>
      <point x="307.873417721519" y="723.632911392405" type="line" smooth="yes"/>
      <point x="307.873417721519" y="787.4303797468355"/>
      <point x="286.11392405063293" y="831.0"/>
      <point x="258.0886075949367" y="831.0" type="qcurve" smooth="yes"/>
      <point x="245.54430379746833" y="831.0"/>
      <point x="211.54430379746833" y="796.0"/>
      <point x="211.54430379746833" y="738.0" type="qcurve" smooth="yes"/>
      <point x="211.54430379746833" y="171.0" type="line" smooth="yes"/>
      <point x="211.54430379746833" y="120.0"/>
      <point x="239.54430379746833" y="81.0"/>
      <point x="263.54430379746833" y="81.0" type="qcurve" smooth="yes"/>
      <point x="290.44303797468353" y="81.0"/>
      <point x="324.126582278481" y="136.0"/>
      <point x="321.6835443037975" y="251.0" type="qcurve"/>
      <point x="468.37974683544303" y="239.0" type="line"/>
      <point x="471.5949367088608" y="116.0"/>
      <point x="350.0506329113924" y="-9.0"/>
      <point x="265.54430379746833" y="-9.0" type="qcurve" smooth="yes"/>
      <point x="162.44303797468353" y="-9.0"/>
      <point x="36.0" y="79.0"/>
    </contour>
  </outline>
</glyph>
<glyph name="h" format="2">
  <advance width="532"/>
  <unicode hex="0068"/>
  <outline>
    <contour>
      <point x="40.0" y="0.0" type="line"/>
      <point x="40.0" y="1456.0" type="line"/>
      <point x="216.7721518987342" y="1456.0" type="line"/>
      <point x="216.7721518987342" y="864.0" type="line"/>
      <point x="231.88607594936707" y="895.0"/>
      <point x="292.7974683544304" y="924.0"/>
      <point x="329.36708860759495" y="924.0" type="qcurve" smooth="yes"/>
      <point x="408.0126582278481" y="924.0"/>
      <point x="493.5443037974684" y="858.0"/>
      <point x="493.5443037974684" y="784.0" type="qcurve" smooth="yes"/>
      <point x="493.5443037974684" y="0.0" type="line"/>
      <point x="316.77215189873414" y="0.0" type="line"/>
      <point x="316.77215189873414" y="750.0" type="line" smooth="yes"/>
      <point x="316.77215189873414" y="805.0"/>
      <point x="290.77215189873414" y="833.0"/>
      <point x="270.77215189873414" y="833.0" type="qcurve" smooth="yes"/>
      <point x="249.7721518987342" y="833.0"/>
      <point x="221.7721518987342" y="809.0"/>
      <point x="216.7721518987342" y="785.0" type="qcurve"/>
      <point x="216.7721518987342" y="0.0" type="line"/>
    </contour>
  </outline>
</glyph>
<glyph name="j" format="2">
  <advance width="272"/>
  <unicode hex="006A"/>
  <outline>
    <contour>
      <point x="-85.0" y="-399.0" type="qcurve"/>
      <point x="-66.0" y="-314.0" type="line"/>
      <point x="-58.0" y="-317.0"/>
      <point x="-33.0" y="-323.0"/>
      <point x="-14.0" y="-323.0" type="qcurve" smooth="yes"/>
      <point x="8.0" y="-323.0"/>
      <point x="45.0" y="-285.0"/>
      <point x="45.0" y="-210.0" type="qcurve" smooth="yes"/>
      <point x="45.0" y="914.0" type="line"/>
      <point x="222.7721518987342" y="914.0" type="line"/>
      <point x="222.7721518987342" y="-193.0" type="line" smooth="yes"/>
      <point x="222.7721518987342" y="-310.0"/>
      <point x="112.99003942726705" y="-417.0"/>
      <point x="12.139240506329113" y="-417.0" type="qcurve" smooth="yes"/>
      <point x="-22.57764742204384" y="-417.0"/>
      <point x="-71.48727569563289" y="-405.0"/>
    </contour>
    <contour>
      <point x="14.9746835443038" y="1242.0" type="qcurve" smooth="yes"/>
      <point x="14.9746835443038" y="1270.886075949367"/>
      <point x="75.26582278481013" y="1309.2151898734178"/>
      <point x="133.8860759493671" y="1309.2151898734178" type="qcurve" smooth="yes"/>
      <point x="193.50632911392404" y="1309.2151898734178"/>
      <point x="252.7974683544304" y="1271.886075949367"/>
      <point x="252.7974683544304" y="1242.0" type="qcurve" smooth="yes"/>
      <point x="252.7974683544304" y="1213.113924050633"/>
      <point x="192.50632911392404" y="1172.7848101265822"/>
      <point x="132.8860759493671" y="1172.7848101265822" type="qcurve" smooth="yes"/>
      <point x="74.26582278481013" y="1172.7848101265822"/>
      <point x="14.9746835443038" y="1213.113924050633"/>
    </contour>
  </outline>
</glyph>
<glyph name="l" format="2">
  <advance width="261"/>
  <unicode hex="006C"/>
  <outline>
    <contour>
      <point x="42.0" y="0.0" type="line"/>
      <point x="42.0" y="1456.0" type="line"/>
      <point x="218.7721518987342" y="1456.0" type="line"/>
      <point x="218.7721518987342" y="0.0" type="line"/>
    </contour>
  </outline>
</glyph>
<glyph name="p" format="2">
  <advance width="535"/>
  <unicode hex="0070"/>
  <outline>
    <contour>
      <point x="41.0" y="-416.0" type="line"/>
      <point x="41.0" y="914.0" type="line"/>
      <point x="213.7721518987342" y="914.0" type="line"/>
      <point x="213.7721518987342" y="854.0" type="line"/>
      <point x="214.7721518987342" y="854.0" type="line"/>
      <point x="221.3291139240506" y="879.0"/>
      <point x="280.253164556962" y="923.0"/>
      <point x="326.0506329113924" y="923.0" type="qcurve" smooth="yes"/>
      <point x="408.6835443037975" y="923.0"/>
      <point x="498.88607594936707" y="844.0"/>
      <point x="498.88607594936707" y="756.0" type="qcurve" smooth="yes"/>
      <point x="498.88607594936707" y="163.0" type="line" smooth="yes"/>
      <point x="498.88607594936707" y="86.0"/>
      <point x="410.6835443037975" y="-8.0"/>
      <point x="329.0506329113924" y="-8.0" type="qcurve" smooth="yes"/>
      <point x="291.253164556962" y="-8.0"/>
      <point x="231.88607594936707" y="17.0"/>
      <point x="217.7721518987342" y="41.0" type="qcurve"/>
      <point x="217.7721518987342" y="-416.0" type="line"/>
    </contour>
    <contour>
      <point x="217.7721518987342" y="127.0" type="line"/>
      <point x="222.7721518987342" y="105.0"/>
      <point x="244.7721518987342" y="84.0"/>
      <point x="265.7721518987342" y="84.0" type="qcurve" smooth="yes"/>
      <point x="286.77215189873414" y="84.0"/>
      <point x="317.77215189873414" y="121.0"/>
      <point x="317.77215189873414" y="172.0" type="qcurve" smooth="yes"/>
      <point x="317.77215189873414" y="732.0" type="line" smooth="yes"/>
      <point x="317.77215189873414" y="795.0"/>
      <point x="292.77215189873414" y="829.0"/>
      <point x="268.77215189873414" y="829.0" type="qcurve" smooth="yes"/>
      <point x="251.7721518987342" y="829.0"/>
      <point x="222.7721518987342" y="805.0"/>
      <point x="217.7721518987342" y="775.0" type="qcurve"/>
    </contour>
  </outline>
</glyph>
<glyph name="y" format="2">
  <advance width="387"/>
  <unicode hex="0079"/>
  <anchor x="228.40506329113924" y="914.0" name="top"/>
  <outline>
    <contour>
      <point x="-42.59493670886076" y="-397.0" type="qcurve"/>
      <point x="-42.59493670886076" y="-304.0" type="line"/>
      <point x="-27.594936708860757" y="-312.0"/>
      <point x="25.405063291139243" y="-325.0"/>
      <point x="52.40506329113924" y="-325.0" type="qcurve" smooth="yes"/>
      <point x="108.21518987341773" y="-325.0"/>
      <point x="169.0" y="-203.9240506329114"/>
      <point x="185.07594936708858" y="14.772151898734178" type="qcurve"/>
      <point x="149.98734177215192" y="17.21518987341772" type="line"/>
      <point x="5.0" y="914.0" type="line"/>
      <point x="195.58227848101265" y="914.0" type="line"/>
      <point x="233.98734177215192" y="410.253164556962" type="line" smooth="yes"/>
      <point x="235.54430379746833" y="400.253164556962"/>
      <point x="236.98734177215192" y="363.69620253164555"/>
      <point x="240.1012658227848" y="351.253164556962" type="qcurve"/>
      <point x="240.1012658227848" y="351.253164556962" type="line"/>
      <point x="243.7721518987342" y="363.1392405063291"/>
      <point x="250.6708860759494" y="395.3544303797468"/>
      <point x="251.6708860759494" y="405.3544303797468" type="qcurve" smooth="yes"/>
      <point x="292.4050632911392" y="914.0" type="line"/>
      <point x="381.4050632911392" y="914.0" type="line"/>
      <point x="253.40506329113924" y="-145.0" type="line" smooth="yes"/>
      <point x="235.40506329113924" y="-296.0"/>
      <point x="134.40506329113924" y="-417.0"/>
      <point x="71.40506329113924" y="-417.0" type="qcurve" smooth="yes"/>
      <point x="35.40506329113924" y="-417.0"/>
      <point x="-23.594936708860757" y="-403.0"/>
    </contour>
  </outline>
</glyph>
<glyph name="braceright" format="2">
  <advance width="277"/>
  <unicode hex="007D"/>
  <outline>
    <contour>
      <point x="8.0" y="-312.0" type="qcurve"/>
      <point x="8.0" y="-232.0" type="line"/>
      <point x="85.86075949367088" y="-232.0"/>
      <point x="111.7974683544304" y="-57.92405063291139"/>
      <point x="78.79746835443038" y="108.07594936708861" type="qcurve" smooth="yes"/>
      <point x="36.79746835443038" y="320.0759493670886" type="line" smooth="yes"/>
      <point x="19.79746835443038" y="404.0759493670886"/>
      <point x="85.96202531645571" y="547.1139240506329"/>
      <point x="170.0" y="574.0" type="qcurve"/>
      <point x="89.30379746835445" y="597.5443037974684"/>
      <point x="20.911392405063282" y="741.1392405063291"/>
      <point x="37.91139240506328" y="825.1392405063291" type="qcurve" smooth="yes"/>
      <point x="79.91139240506328" y="1037.139240506329" type="line" smooth="yes"/>
      <point x="112.91139240506328" y="1203.139240506329"/>
      <point x="91.43037974683546" y="1380.0"/>
      <point x="8.0" y="1380.0" type="qcurve"/>
      <point x="8.0" y="1460.0" type="line"/>
      <point x="169.0379746835443" y="1460.0"/>
      <point x="281.0632911392405" y="1220.886075949367"/>
      <point x="239.0632911392405" y="1029.886075949367" type="qcurve" smooth="yes"/>
      <point x="197.0632911392405" y="817.8860759493671" type="line" smooth="yes"/>
      <point x="172.0632911392405" y="692.8860759493671"/>
      <point x="243.7088607594937" y="614.0"/>
      <point x="279.0" y="614.0" type="qcurve"/>
      <point x="279.0" y="534.0" type="line"/>
      <point x="243.7088607594937" y="534.0"/>
      <point x="168.72151898734177" y="461.7974683544304"/>
      <point x="193.72151898734177" y="336.7974683544304" type="qcurve" smooth="yes"/>
      <point x="235.72151898734177" y="124.79746835443038" type="line" smooth="yes"/>
      <point x="281.62025316455697" y="-82.9113924050633"/>
      <point x="194.1012658227848" y="-312.0"/>
    </contour>
  </outline>
</glyph>
<glyph name="diagonalbarl" format="2">
  <advance width="410"/>
  <outline>
    <contour>
      <point x="52.0" y="526.0" type="line"/>
      <point x="0.0" y="614.0" type="line"/>
      <point x="111.0" y="693.0" type="line"/>
      <point x="343.0" y="871.0" type="line"/>
      <point x="400.0" y="771.0" type="line"/>
      <point x="169.0" y="617.0" type="line"/>
    </contour>
  </outline>
</glyph>
<glyph name="eight.prop" format="2">
  <advance width="352"/>
  <outline>
    <contour>
      <point x="20.0" y="381.0" type="qcurve" smooth="yes"/>
      <point x="20.0" y="613.0"/>
      <point x="67.0" y="729.0"/>
      <point x="100.0" y="744.0" type="qcurve"/>
      <point x="100.0" y="745.0" type="line"/>
      <point x="70.0" y="763.0"/>
      <point x="36.0" y="859.0"/>
      <point x="36.0" y="1091.0" type="qcurve" smooth="yes"/>
      <point x="36.0" y="1333.0"/>
      <point x="107.0" y="1465.0"/>
      <point x="176.0" y="1465.0" type="qcurve" smooth="yes"/>
      <point x="244.0" y="1465.0"/>
      <point x="316.0" y="1345.0"/>
      <point x="316.0" y="1091.0" type="qcurve" smooth="yes"/>
      <point x="316.0" y="862.0"/>
      <point x="281.0" y="762.0"/>
      <point x="250.0" y="747.0" type="qcurve"/>
      <point x="250.0" y="746.0" type="line"/>
      <point x="286.0" y="736.0"/>
      <point x="332.0" y="614.0"/>
      <point x="332.0" y="381.0" type="qcurve" smooth="yes"/>
      <point x="332.0" y="130.0"/>
      <point x="248.0" y="-10.0"/>
      <point x="176.0" y="-10.0" type="qcurve" smooth="yes"/>
      <point x="104.0" y="-10.0"/>
      <point x="20.0" y="139.0"/>
    </contour>
    <contour>
      <point x="115.0" y="384.0" type="qcurve" smooth="yes"/>
      <point x="115.0" y="201.0"/>
      <point x="134.0" y="83.0"/>
      <point x="176.0" y="83.0" type="qcurve" smooth="yes"/>
      <point x="218.0" y="83.0"/>
      <point x="237.0" y="206.0"/>
      <point x="237.0" y="383.0" type="qcurve" smooth="yes"/>
      <point x="237.0" y="560.0"/>
      <point x="226.0" y="698.0"/>
      <point x="176.0" y="698.0" type="qcurve" smooth="yes"/>
      <point x="125.0" y="698.0"/>
      <point x="115.0" y="567.0"/>
    </contour>
    <contour>
      <point x="126.0" y="1089.0" type="qcurve" smooth="yes"/>
      <point x="126.0" y="886.0"/>
      <point x="137.0" y="791.0"/>
      <point x="176.0" y="791.0" type="qcurve" smooth="yes"/>
      <point x="215.0" y="791.0"/>
      <point x="226.0" y="890.0"/>
      <point x="226.0" y="1089.0" type="qcurve" smooth="yes"/>
      <point x="226.0" y="1288.0"/>
      <point x="214.0" y="1373.0"/>
      <point x="176.0" y="1373.0" type="qcurve" smooth="yes"/>
      <point x="138.0" y="1373.0"/>
      <point x="126.0" y="1292.0"/>
    </contour>
  </outline>
</glyph>
<glyph name="three.prop" format="2">
  <advance width="352"/>
  <outline>
    <contour>
      <point x="22.0" y="203.0" type="qcurve" smooth="yes"/>
      <point x="22.0" y="455.0" type="line"/>
      <point x="118.0" y="455.0" type="line"/>
      <point x="118.0" y="212.0" type="line" smooth="yes"/>
      <point x="118.0" y="134.0"/>
      <point x="139.0" y="86.0"/>
      <point x="169.0" y="86.0" type="qcurve" smooth="yes"/>
      <point x="203.0" y="86.0"/>
      <point x="222.0" y="163.0"/>
      <point x="222.0" y="395.0" type="qcurve" smooth="yes"/>
      <point x="222.0" y="631.0"/>
      <point x="174.0" y="733.0"/>
      <point x="123.0" y="733.0" type="qcurve" smooth="yes"/>
      <point x="75.0" y="733.0" type="line"/>
      <point x="75.0" y="829.0" type="line"/>
      <point x="108.0" y="829.0" type="line" smooth="yes"/>
      <point x="175.0" y="827.0"/>
      <point x="223.0" y="948.0"/>
      <point x="223.0" y="1106.0" type="qcurve" smooth="yes"/>
      <point x="223.0" y="1304.0"/>
      <point x="202.0" y="1370.0"/>
      <point x="173.0" y="1370.0" type="qcurve" smooth="yes"/>
      <point x="144.0" y="1370.0"/>
      <point x="132.0" y="1318.0"/>
      <point x="132.0" y="1245.0" type="qcurve" smooth="yes"/>
      <point x="132.0" y="1005.0" type="line"/>
      <point x="38.0" y="1005.0" type="line"/>
      <point x="38.0" y="1265.0" type="line" smooth="yes"/>
      <point x="38.0" y="1367.0"/>
      <point x="102.0" y="1466.0"/>
      <point x="172.0" y="1466.0" type="qcurve" smooth="yes"/>
      <point x="250.0" y="1466.0"/>
      <point x="319.0" y="1343.0"/>
      <point x="319.0" y="1112.0" type="qcurve" smooth="yes"/>
      <point x="319.0" y="947.0"/>
      <point x="261.0" y="805.0"/>
      <point x="209.0" y="788.0" type="qcurve"/>
      <point x="209.0" y="784.0" type="line"/>
      <point x="269.0" y="769.0"/>
      <point x="318.0" y="610.0"/>
      <point x="318.0" y="395.0" type="qcurve" smooth="yes"/>
      <point x="318.0" y="154.0"/>
      <point x="255.0" y="-10.0"/>
      <point x="168.0" y="-10.0" type="qcurve" smooth="yes"/>
      <point x="98.0" y="-10.0"/>
      <point x="22.0" y="86.0"/>
    </contour>
  </outline>
</glyph>
<glyph name="zerosuperior" format="2">
  <advance width="432"/>
  <outline>
    <contour>
      <point x="37.67088607594937" y="791.0" type="qcurve" smooth="yes"/>
      <point x="37.67088607594937" y="1320.0" type="line" smooth="yes"/>
      <point x="37.67088607594937" y="1392.0"/>
      <point x="138.86075949367088" y="1466.0"/>
      <point x="215.59493670886076" y="1466.0" type="qcurve" smooth="yes"/>
      <point x="292.3291139240506" y="1466.0"/>
      <point x="393.96202531645565" y="1392.0"/>
      <point x="393.96202531645565" y="1320.0" type="qcurve" smooth="yes"/>
      <point x="393.96202531645565" y="791.0" type="line" smooth="yes"/>
      <point x="393.96202531645565" y="718.0"/>
      <point x="291.3291139240506" y="643.0"/>
      <point x="215.59493670886076" y="643.0" type="qcurve" smooth="yes"/>
      <point x="139.86075949367088" y="643.0"/>
      <point x="37.67088607594937" y="718.0"/>
    </contour>
    <contour>
      <point x="182.70886075949366" y="792.0" type="line" smooth="yes"/>
      <point x="182.70886075949366" y="752.0"/>
      <point x="198.59493670886076" y="726.0"/>
      <point x="214.59493670886076" y="726.0" type="qcurve" smooth="yes"/>
      <point x="230.59493670886076" y="726.0"/>
      <point x="248.92405063291142" y="752.0"/>
      <point x="248.92405063291142" y="792.0" type="qcurve" smooth="yes"/>
      <point x="248.92405063291142" y="1313.0" type="line" smooth="yes"/>
      <point x="248.92405063291142" y="1357.0"/>
      <point x="230.59493670886076" y="1383.0"/>
      <point x="214.59493670886076" y="1383.0" type="qcurve" smooth="yes"/>
      <point x="199.59493670886076" y="1383.0"/>
      <point x="182.70886075949366" y="1357.0"/>
      <point x="182.70886075949366" y="1313.0" type="qcurve" smooth="yes"/>
    </contour>
  </outline>
</glyph>
